<?xml version="1.0" encoding="UTF-8" standalone="no"?>
<!-- Created with Inkscape (http://www.inkscape.org/) -->

<svg
   width="109.82767mm"
   height="82.704346mm"
   viewBox="0 0 109.82767 82.704346"
   version="1.1"
   id="svg1"
   xml:space="preserve"
   sodipodi:docname="NASA_Partner.svg"
   inkscape:version="1.3.2 (1:1.3.2+202311252150+091e20ef0f)"
   xmlns:inkscape="http://www.inkscape.org/namespaces/inkscape"
   xmlns:sodipodi="http://sodipodi.sourceforge.net/DTD/sodipodi-0.dtd"
   xmlns="http://www.w3.org/2000/svg"
   xmlns:svg="http://www.w3.org/2000/svg"><sodipodi:namedview
     id="namedview1"
     pagecolor="#ffffff"
     bordercolor="#000000"
     borderopacity="0.25"
     inkscape:showpageshadow="2"
     inkscape:pageopacity="0.0"
     inkscape:pagecheckerboard="true"
     inkscape:deskcolor="#d1d1d1"
     inkscape:document-units="mm"
     inkscape:zoom="1.7478535"
     inkscape:cx="268.90125"
     inkscape:cy="106.41624"
     inkscape:window-width="1392"
     inkscape:window-height="1274"
     inkscape:window-x="1891"
     inkscape:window-y="329"
     inkscape:window-maximized="0"
     inkscape:current-layer="g1"><inkscape:page
       x="0"
       y="0"
       width="109.82767"
       height="82.704346"
       id="page2"
       margin="0"
       bleed="0" /><inkscape:page
       x="60.379868"
       y="0.00035273004"
       width="49.44886"
       height="37.235695"
       id="page3"
       margin="0"
       bleed="0" /></sodipodi:namedview><defs
     id="defs1"><rect
       x="-383.47482"
       y="1783.1749"
       width="1890.6281"
       height="504.84775"
       id="rect1" /></defs><g
     inkscape:label="Layer 1"
     inkscape:groupmode="layer"
     id="layer1"
     transform="translate(-109.19698,-15.256394)"><text
       xml:space="preserve"
       transform="scale(0.26458333)"
       id="text1"
       style="white-space:pre;shape-inside:url(#rect1);display:inline;fill:#000000" /></g><g
     id="g1"
     inkscape:groupmode="layer"
     inkscape:label="1"
     transform="matrix(0.26458333,0,0,0.26458333,60.379866,3.5273004e-4)"><path
       id="path2"
       d="M 186.14896,311.84166 H -227.46701 V 0.73902642 H 186.14896 V 311.84166"
       style="fill:#ffffff;fill-opacity:1;fill-rule:nonzero;stroke:none;stroke-width:0.296144" /><path
       id="path3"
       d="M 186.14896,311.84166 H -227.46701 V 0.73902642 h 413.61597 z"
       style="fill:none;stroke:#100f0d;stroke-width:1.48072;stroke-linecap:butt;stroke-linejoin:miter;stroke-miterlimit:10;stroke-dasharray:none;stroke-opacity:1" /><path
       id="path4"
       d="m -91.411222,279.51103 v -13.84706 h 8.71081 c 4.78921,0 8.086129,-0.97172 9.960168,-2.98458 1.839334,-1.97815 2.741649,-4.44217 2.741649,-7.28793 0,-1.70052 -0.347044,-3.22751 -1.041132,-4.65039 -0.659384,-1.35347 -1.561699,-2.46401 -2.706945,-3.26222 -1.145246,-0.76349 -2.498718,-1.28406 -4.233939,-1.56169 -1.17995,-0.24293 -2.880467,-0.31234 -5.136254,-0.31234 h -12.805931 v 33.90621 z m 0,-29.94991 h 8.676105 c 2.012856,0 3.435738,0.10412 4.16453,0.31234 1.179951,0.31234 2.11697,0.97172 2.845763,2.01285 0.694088,1.00643 1.075837,2.22109 1.075837,3.64397 0,1.94345 -0.62468,3.47044 -1.839334,4.54628 -1.179951,1.11054 -3.262216,1.63111 -6.177387,1.63111 h -8.745514 z m 43.441257,29.94991 h 4.372758 c -0.520568,-0.93702 -0.867611,-1.94345 -1.041134,-2.98458 -0.173511,-1.00643 -0.242927,-3.47044 -0.242927,-7.28793 v -5.5527 c 0,-1.83934 -0.06942,-3.1234 -0.208219,-3.81749 -0.277635,-1.14524 -0.694088,-2.11697 -1.318766,-2.84576 -0.624681,-0.7635 -1.5617,-1.38818 -2.880467,-1.87404 -1.318769,-0.52057 -3.053988,-0.72879 -5.136254,-0.72879 -2.11697,0 -3.956305,0.27763 -5.587412,0.8329 -1.596405,0.62468 -2.845764,1.42288 -3.67867,2.49872 -0.867608,1.04113 -1.457584,2.46402 -1.839332,4.23394 l 4.060415,0.55527 c 0.416453,-1.73522 1.145247,-2.98458 2.082265,-3.64396 0.937022,-0.69409 2.359901,-1.04114 4.372759,-1.04114 2.082265,0 3.678666,0.48587 4.719801,1.42289 0.7982,0.65938 1.179948,1.83933 1.179948,3.57455 0,0.13882 0,0.52057 0,1.07584 -1.596401,0.55527 -4.060415,1.04113 -7.461449,1.42288 -1.631107,0.17352 -2.845761,0.41645 -3.713372,0.62468 -1.075837,0.31234 -2.082265,0.72879 -2.984582,1.35347 -0.902313,0.62468 -1.596402,1.42288 -2.186378,2.42931 -0.520565,0.93702 -0.7982,2.08227 -0.7982,3.26222 0,2.04756 0.728793,3.74807 2.186377,5.03214 1.457587,1.31876 3.539853,1.97815 6.246796,1.97815 1.631107,0 3.192806,-0.27764 4.615688,-0.7982 1.388177,-0.58998 2.880466,-1.49229 4.442166,-2.81106 0.138803,1.17995 0.381748,2.18638 0.798201,3.08869 z m -1.145247,-10.79307 c 0,1.83933 -0.242927,3.22751 -0.694088,4.12982 -0.589973,1.21466 -1.492289,2.15168 -2.741648,2.88047 -1.249359,0.69409 -2.672241,1.04113 -4.268643,1.04113 -1.665812,0 -2.880466,-0.38175 -3.713372,-1.11054 -0.832906,-0.72879 -1.284065,-1.63111 -1.284065,-2.77635 0,-0.72879 0.20822,-1.38818 0.589976,-1.94345 0.381748,-0.62468 0.937019,-1.04113 1.665812,-1.38818 0.694089,-0.27763 1.943448,-0.55527 3.643962,-0.7982 3.019287,-0.41645 5.309777,-0.93702 6.802066,-1.5617 z m 14.758057,10.79307 V 266.6704 c 0,-1.73522 0.242927,-3.36633 0.694088,-4.89333 0.31234,-0.93702 0.832906,-1.70051 1.526994,-2.25578 0.694089,-0.52057 1.5617,-0.7982 2.464013,-0.7982 1.006429,0 1.978153,0.27763 3.019284,0.8329 l 1.492292,-3.81748 c -1.492292,-0.90232 -2.915171,-1.31877 -4.268645,-1.31877 -1.006426,0 -1.908743,0.27763 -2.706944,0.8329 -0.7982,0.52057 -1.700517,1.70052 -2.637535,3.40104 v -3.71338 h -3.748078 v 24.57073 z m 18.896555,-3.53985 c -0.624678,0 -1.075836,-0.10411 -1.422882,-0.31234 -0.347043,-0.20822 -0.555271,-0.45116 -0.694088,-0.8329 -0.173511,-0.34705 -0.242928,-1.11055 -0.242928,-2.2905 v -14.40233 h 4.164531 v -3.19281 h -4.164531 v -8.60669 l -4.16453,2.53342 v 6.07327 h -3.088694 v 3.19281 h 3.088694 v 14.19411 c 0,2.49872 0.173511,4.09512 0.520566,4.89332 0.31234,0.7635 0.902316,1.42288 1.735222,1.90874 0.798198,0.48587 1.97815,0.7288 3.505144,0.7288 0.902314,0 1.943448,-0.17353 3.123396,-0.38175 l -0.55527,-3.64397 c -0.763496,0.0694 -1.388177,0.13882 -1.80463,0.13882 z m 10.0903112,3.53985 v -13.3959 c 0,-3.19281 0.6593832,-5.30978 1.9434475,-6.42032 1.2840642,-1.11054 2.81105868,-1.70052 4.5462782,-1.70052 1.1452466,0 2.0822652,0.24293 2.8804661,0.7635 0.8676112,0.48586 1.4228819,1.17995 1.7699276,1.97815 0.3470427,0.86761 0.4858604,2.15168 0.4858604,3.85219 v 14.9229 h 4.16453 v -15.09642 c 0,-1.90874 -0.104124,-3.29692 -0.242927,-4.02571 -0.2429272,-1.21466 -0.6593832,-2.25579 -1.2840642,-3.0887 -0.6246781,-0.86761 -1.5616996,-1.56169 -2.7763535,-2.08226 -1.2493591,-0.52057 -2.6375359,-0.7982 -4.0951201,-0.7982 -3.4010346,0 -6.0038653,1.31877 -7.8084951,4.02571 v -3.50515 h -3.7480773 v 24.57073 z m 36.4049368,-4.12982 c -1.110541,0.7982 -2.394606,1.24936 -3.886895,1.24936 -2.082265,0 -3.817488,-0.7288 -5.170959,-2.15168 -1.388177,-1.45758 -2.151676,-3.50514 -2.290493,-6.21209 h 18.358638 c 0,-0.45116 0,-0.83291 0,-1.07584 0,-4.06041 -1.041131,-7.18381 -3.123396,-9.4396 -2.11697,-2.22108 -4.754506,-3.33162 -8.016723,-3.33162 -3.401032,0 -6.177385,1.11054 -8.294356,3.40103 -2.11697,2.25579 -3.158101,5.4833 -3.158101,9.61312 0,3.99101 1.041131,7.045 3.158101,9.26608 2.082265,2.25579 4.928029,3.33163 8.537289,3.33163 2.845761,0 5.136254,-0.69409 7.010291,-2.08227 1.80463,-1.38817 3.053989,-3.33162 3.748078,-5.83034 l -4.338054,-0.55527 c -0.589973,1.73522 -1.457584,3.01928 -2.53342,3.81749 z m -8.919037,-15.61699 c 1.284065,-1.28407 2.880467,-1.94345 4.789209,-1.94345 2.11697,0 3.817487,0.7982 5.170959,2.39461 0.832906,1.04113 1.353472,2.56812 1.5617,4.65039 H 19.929234 c 0.138803,-2.11697 0.867608,-3.81749 2.186377,-5.10155 z M 47.28499,279.51103 V 266.6704 c 0,-1.73522 0.242928,-3.36633 0.694089,-4.89333 0.31234,-0.93702 0.832906,-1.70051 1.526994,-2.25578 0.694089,-0.52057 1.5617,-0.7982 2.464013,-0.7982 1.006429,0 1.978153,0.27763 3.019287,0.8329 l 1.492289,-3.81748 c -1.492289,-0.90232 -2.915171,-1.31877 -4.268643,-1.31877 -1.006428,0 -1.908745,0.27763 -2.706946,0.8329 -0.798201,0.52057 -1.700517,1.70052 -2.637536,3.40104 V 254.9403 H 43.12046 v 24.57073 z m 0,0"
       style="fill:#231f20;fill-opacity:1;fill-rule:nonzero;stroke:none;stroke-width:2.96144"
       aria-label="Partner" /><path
       id="path5"
       d="m 69.047551,128.48446 c 0,51.21906 -42.194651,93.37432 -93.465831,93.37432 -51.269996,0 -93.4685,-42.15526 -93.4685,-93.37432 0,-51.22143 41.209382,-93.375805 93.4685,-93.375805 50.282058,0 93.465831,42.154375 93.465831,93.375805"
       style="fill:#2b3a94;fill-opacity:1;fill-rule:nonzero;stroke:none;stroke-width:0.296144" /><path
       id="path6"
       d="M -3.3378348,177.62814 C 36.593089,194.05497 29.663903,152.54382 8.3785253,120.76042 -3.6837314,102.74981 -19.415217,87.749503 -29.338423,80.509069 -62.245098,56.493537 -82.557641,71.058806 -59.323041,118.42118 c 7.51259,15.31273 17.161566,25.64788 24.698145,35.38925 5.754973,7.43707 16.967,11.16109 13.017618,14.69054 -4.451346,3.97929 -15.227151,-13.572 -15.227151,-13.572 -7.964804,-9.59686 -15.548765,-19.84168 -23.365496,-33.89225 -17.86106,-32.10264 -15.286084,-64.864796 17.041036,-50.592118 27.438665,12.117636 53.642705,46.103758 64.181299,70.239528 4.868021,11.1448 18.135289,55.23892 -24.1254023,37.41251"
       style="fill:#ffffff;fill-opacity:1;fill-rule:nonzero;stroke:none;stroke-width:0.296144" /><path
       id="path7"
       d="m -127.51236,156.1633 c 17.56729,-11.70096 34.223039,-19.25501 62.567314,-28.61614 C -25.118366,114.39421 4.8618108,105.54808 41.639093,87.061263 58.100574,78.786397 86.668142,60.233544 96.8792,44.101671 93.82299,50.344987 84.352293,62.494902 80.061161,67.870811 30.161129,130.35491 -76.134862,126.81509 -126.81257,156.81689"
       style="fill:#e21c29;fill-opacity:1;fill-rule:nonzero;stroke:none;stroke-width:0.296144" /><path
       id="path8"
       d="m -102.02795,110.49576 c 16.078567,0.12497 14.50071,-0.0335 14.689354,0.15636 0.279857,0 12.836082,21.62299 12.836082,21.80926 0,0.0927 -0.09269,-7.68583 -0.09269,-17.41122 0,-1.12327 -3.092044,-4.39804 -2.999647,-4.39804 4.590238,0 10.588347,0.0912 10.588347,0.0912 -2.248921,2.62265 -2.696395,2.40617 -2.716237,4.02578 -0.06367,5.21037 -0.122603,14.83743 0,25.64877 0.01747,1.6208 1.218042,2.24655 3.185922,5.05548 h -14.711269 c -4.77977,-7.95651 -13.537055,-22.88426 -13.49293,-22.84013 0.06693,0.0681 -0.188644,9.36083 0.0924,16.84884 0.09388,2.47458 1.219227,3.27743 3.280688,5.52398 0,0 2.372708,-0.0637 -11.52653,0.0924 4.216798,-2.24773 3.656789,-5.054 3.65442,-5.14787 -0.15133,-10.34403 -0.02991,-19.19016 -0.02991,-24.90042 0,-0.93581 -0.06367,-0.84312 -2.96736,-4.39804"
       style="fill:#ffffff;fill-opacity:1;fill-rule:nonzero;stroke:none;stroke-width:0.296144" /><path
       id="path9"
       d="m -51.753887,126.4692 c 1.348937,-4.68619 2.502124,-8.87515 3.049398,-11.60531 0.0924,-0.4685 -1.030878,-2.15267 -2.811002,-3.83833 l -0.126157,-0.2612 c 8.584633,0.0275 17.553365,0.074 17.553365,0.074 2.342502,5.70996 7.684947,21.71567 11.712807,31.54619 1.065527,2.59807 2.90488,3.08878 2.90488,3.08878 -7.307659,-0.0927 -20.871368,-0.0314 -20.800885,-0.0927 3.654421,-3.27832 3.185921,-3.27832 1.591776,-8.05009 H -50.10999 c -2.342502,5.42892 0.729996,7.97605 1.123276,7.95651 -2.60074,0.13415 -11.430581,0 -11.430581,0 4.778882,-3.37101 4.497841,-4.39952 4.497841,-4.39952 1.311623,-4.6699 2.834102,-9.78669 4.165567,-14.41838 l 4.689742,0.002 c -1.008668,3.22975 -2.016447,6.45831 -2.016447,6.45831 h 9.091633 l -5.061108,-12.91811 c 0,0 -1.006595,3.22975 -2.014078,6.4598 l -4.689742,-0.002"
       style="fill:#ffffff;fill-opacity:1;fill-rule:nonzero;stroke:none;stroke-width:0.296144" /><path
       id="path10"
       d="m 26.769387,126.9377 c 1.346569,-4.68501 2.501236,-8.87515 3.048215,-11.60649 0.09269,-0.46732 -1.032952,-2.15149 -2.812187,-3.83804 l -0.126158,-0.26031 c 8.586114,0.0275 17.557216,0.074 17.557216,0.074 2.340133,5.70996 7.681097,21.71804 11.710437,31.54382 1.064047,2.60074 2.902215,3.09115 2.902215,3.09115 -7.30529,-0.0939 -20.867814,-0.0314 -20.79822,-0.0939 3.655606,-3.27595 3.187106,-3.27595 1.592961,-8.0501 h -11.43295 c -2.342502,5.43011 0.728811,7.97606 1.122091,7.9577 -2.599259,0.13178 -11.428212,0 -11.428212,0 4.777697,-3.37101 4.496656,-4.40071 4.496656,-4.40071 1.313105,-4.67108 2.834102,-9.7852 4.167936,-14.41719 h 4.687374 c -1.009853,3.23093 -2.012598,6.46068 -2.012598,6.46068 h 9.086598 L 33.469654,120.4802 c 0,0 -1.002745,3.22886 -2.012893,6.45743 h -4.687374"
       style="fill:#ffffff;fill-opacity:1;fill-rule:nonzero;stroke:none;stroke-width:0.296144" /><path
       id="path11"
       d="m 11.985268,119.2646 c -0.188348,-6.64815 0,-8.80112 0,-8.80112 -2.9069535,2.34132 -1.441335,2.0428 -8.7140487,0.84342 -20.9616913,-3.45897 -22.5579093,16.10966 -11.1519089,20.49971 9.5761247,3.68581 12.9678663,4.40751 11.525347,7.86174 -0.4685004,1.12565 -9.1825488,5.24383 -18.1770464,-3.0876 l 0.185091,11.60767 c 1.12446,-1.15792 4.220057,-3.27624 4.220057,-3.27624 0.09269,0 9.74848084,4.25471 18.4571986,-0.18864 C 21.731675,137.89148 15.041774,126.83227 0.74125789,122.44459 -11.160192,118.7961 0.08411351,110.27484 11.889317,119.35581"
       style="fill:#ffffff;fill-opacity:1;fill-rule:nonzero;stroke:none;stroke-width:0.296144" /><path
       id="path12"
       d="m -23.100734,43.591414 c 0,0.41786 -0.343527,0.761388 -0.762275,0.761388 -0.416676,0 -0.761388,-0.343528 -0.761388,-0.761388 0,-0.417563 0.344712,-0.761091 0.761388,-0.761091 0.418748,0 0.762275,0.343528 0.762275,0.761091"
       style="fill:#ffffff;fill-opacity:1;fill-rule:nonzero;stroke:none;stroke-width:0.296144" /><path
       id="path13"
       d="m -17.829068,55.116761 c 0,0.513811 -0.425855,0.936113 -0.937001,0.936113 -0.514995,0 -0.938185,-0.422302 -0.938185,-0.936113 0,-0.513514 0.42319,-0.935816 0.938185,-0.935816 0.511146,0 0.937001,0.422302 0.937001,0.935816"
       style="fill:#ffffff;fill-opacity:1;fill-rule:nonzero;stroke:none;stroke-width:0.296144" /><path
       id="path14"
       d="m -4.1267634,73.957763 c 0,0.511441 -0.4223019,0.934928 -0.9370008,0.934928 -0.5111452,0 -0.9370009,-0.423487 -0.9370009,-0.934928 0,-0.515884 0.3932798,-0.937001 0.9079787,-0.937001 0.5149951,0 0.966023,0.421117 0.966023,0.937001"
       style="fill:#ffffff;fill-opacity:1;fill-rule:nonzero;stroke:none;stroke-width:0.296144" /><path
       id="path15"
       d="m -26.146579,61.611208 c 0,0.417563 -0.342639,0.761091 -0.760202,0.761091 -0.418749,0 -0.762276,-0.343528 -0.762276,-0.761091 0,-0.416379 0.343527,-0.759907 0.762276,-0.759907 0.417563,0 0.760202,0.343528 0.760202,0.759907"
       style="fill:#ffffff;fill-opacity:1;fill-rule:nonzero;stroke:none;stroke-width:0.296144" /><path
       id="path16"
       d="m -17.948414,65.93995 c 0,0.417564 -0.343527,0.761387 -0.759906,0.761387 -0.417564,0 -0.762276,-0.343823 -0.762276,-0.761387 0,-0.416379 0.344712,-0.758722 0.762276,-0.758722 0.416379,0 0.759906,0.342343 0.759906,0.758722"
       style="fill:#ffffff;fill-opacity:1;fill-rule:nonzero;stroke:none;stroke-width:0.296144" /><path
       id="path17"
       d="m -28.606058,53.830606 c 0,0.51233 -0.423486,0.935817 -0.937001,0.935817 -0.514699,0 -0.937001,-0.423487 -0.937001,-0.935817 0,-0.51381 0.422302,-0.937001 0.937001,-0.937001 0.513515,0 0.937001,0.423191 0.937001,0.937001"
       style="fill:#ffffff;fill-opacity:1;fill-rule:nonzero;stroke:none;stroke-width:0.296144" /><path
       id="path18"
       d="m -41.021023,61.376365 c 0,0.418748 -0.343527,0.762276 -0.761091,0.762276 -0.417563,0 -0.762275,-0.343528 -0.762275,-0.762276 0,-0.415194 0.344712,-0.759906 0.762275,-0.759906 0.417564,0 0.761091,0.344712 0.761091,0.759906"
       style="fill:#ffffff;fill-opacity:1;fill-rule:nonzero;stroke:none;stroke-width:0.296144" /><path
       id="path19"
       d="m -38.795201,62.898843 c 0,0.417564 -0.343528,0.761091 -0.761388,0.761091 -0.418748,0 -0.762275,-0.343527 -0.762275,-0.761091 0,-0.416675 0.343527,-0.760202 0.762275,-0.760202 0.41786,0 0.761388,0.343527 0.761388,0.760202"
       style="fill:#ffffff;fill-opacity:1;fill-rule:nonzero;stroke:none;stroke-width:0.296144" /><path
       id="path20"
       d="m -36.570861,64.419841 c 0,0.41786 -0.343527,0.761387 -0.761091,0.761387 -0.417564,0 -0.761091,-0.343527 -0.761091,-0.761387 0,-0.417564 0.343527,-0.759907 0.761091,-0.759907 0.417564,0 0.761091,0.342343 0.761091,0.759907"
       style="fill:#ffffff;fill-opacity:1;fill-rule:nonzero;stroke:none;stroke-width:0.296144" /><path
       id="path21"
       d="m -39.96586,67.344267 c 0,0.418748 -0.345897,0.761387 -0.762572,0.761387 -0.417564,0 -0.762276,-0.342639 -0.762276,-0.761387 0,-0.416379 0.344712,-0.759907 0.762276,-0.759907 0.416675,0 0.762572,0.343528 0.762572,0.759907"
       style="fill:#ffffff;fill-opacity:1;fill-rule:nonzero;stroke:none;stroke-width:0.296144" /><path
       id="path22"
       d="m -57.652491,79.748866 c 0,0.417564 -0.343527,0.760203 -0.762276,0.760203 -0.417563,0 -0.761387,-0.342639 -0.761387,-0.760203 0,-0.418748 0.343824,-0.761091 0.761387,-0.761091 0.418749,0 0.762276,0.342343 0.762276,0.761091"
       style="fill:#ffffff;fill-opacity:1;fill-rule:nonzero;stroke:none;stroke-width:0.296144" /><path
       id="path23"
       d="m -54.372988,83.72727 c 0,0.415194 -0.344712,0.759906 -0.762276,0.759906 -0.417563,0 -0.761091,-0.344712 -0.761091,-0.759906 0,-0.418748 0.343528,-0.761387 0.761091,-0.761387 0.417564,0 0.762276,0.342639 0.762276,0.761387"
       style="fill:#ffffff;fill-opacity:1;fill-rule:nonzero;stroke:none;stroke-width:0.296144" /><path
       id="path24"
       d="m -56.980243,147.96632 c 0,0.41756 -0.343824,0.7599 -0.760203,0.7599 -0.417563,0 -0.762275,-0.34234 -0.762275,-0.7599 0,-0.41668 0.344712,-0.76139 0.762275,-0.76139 0.416379,0 0.760203,0.34471 0.760203,0.76139"
       style="fill:#ffffff;fill-opacity:1;fill-rule:nonzero;stroke:none;stroke-width:0.296144" /><path
       id="path25"
       d="m -56.511743,165.69204 c 0,0.51588 -0.423486,0.93581 -0.937297,0.93581 -0.513514,0 -0.937001,-0.41993 -0.937001,-0.93581 0,-0.51233 0.423487,-0.93463 0.937001,-0.93463 0.513811,0 0.937297,0.4223 0.937297,0.93463"
       style="fill:#ffffff;fill-opacity:1;fill-rule:nonzero;stroke:none;stroke-width:0.296144" /><path
       id="path26"
       d="m -66.584205,174.76146 c 0,0.41638 -0.344713,0.76109 -0.761092,0.76109 -0.417859,0 -0.761387,-0.34471 -0.761387,-0.76109 0,-0.41756 0.343528,-0.75991 0.761387,-0.75991 0.416379,0 0.761092,0.34235 0.761092,0.75991"
       style="fill:#ffffff;fill-opacity:1;fill-rule:nonzero;stroke:none;stroke-width:0.296144" /><path
       id="path27"
       d="m -78.647647,178.44816 c 0,0.51381 -0.424375,0.93611 -0.938185,0.93611 -0.513515,0 -0.937001,-0.4223 -0.937001,-0.93611 0,-0.5147 0.423486,-0.937 0.937001,-0.937 0.51381,0 0.938185,0.4223 0.938185,0.937"
       style="fill:#ffffff;fill-opacity:1;fill-rule:nonzero;stroke:none;stroke-width:0.296144" /><path
       id="path28"
       d="m -81.108014,170.25799 c 0,0.51144 -0.424671,0.93463 -0.937001,0.93463 -0.513811,0 -0.937001,-0.42319 -0.937001,-0.93463 0,-0.5147 0.42319,-0.937 0.937001,-0.937 0.51233,0 0.937001,0.4223 0.937001,0.937"
       style="fill:#ffffff;fill-opacity:1;fill-rule:nonzero;stroke:none;stroke-width:0.296144" /><path
       id="path29"
       d="m -82.512331,175.46362 c 0,0.41756 -0.343527,0.7602 -0.762572,0.7602 -0.417563,0 -0.762275,-0.34264 -0.762275,-0.7602 0,-0.41638 0.344712,-0.76109 0.762275,-0.76109 0.419045,0 0.762572,0.34471 0.762572,0.76109"
       style="fill:#ffffff;fill-opacity:1;fill-rule:nonzero;stroke:none;stroke-width:0.296144" /><path
       id="path30"
       d="m -91.532,171.13369 c 0,0.41638 -0.344712,0.76109 -0.761388,0.76109 -0.417563,0 -0.762275,-0.34471 -0.762275,-0.76109 0,-0.41638 0.344712,-0.75991 0.762275,-0.75991 0.416676,0 0.761388,0.34353 0.761388,0.75991"
       style="fill:#ffffff;fill-opacity:1;fill-rule:nonzero;stroke:none;stroke-width:0.296144" /><path
       id="path31"
       d="m -60.0252,185.76056 c 0,0.41756 -0.31569,0.7599 -0.732069,0.7599 -0.417859,0 -0.790113,-0.34234 -0.790113,-0.7599 0,-0.41638 0.343528,-0.7602 0.759907,-0.7602 0.418748,0 0.762275,0.34382 0.762275,0.7602"
       style="fill:#ffffff;fill-opacity:1;fill-rule:nonzero;stroke:none;stroke-width:0.296144" /><path
       id="path32"
       d="m -50.538215,178.79761 c 0,0.5147 -0.393279,0.937 -0.907978,0.937 -0.513515,0 -0.966023,-0.4223 -0.966023,-0.937 0,-0.51114 0.423486,-0.93463 0.937001,-0.93463 0.514995,0 0.937,0.42349 0.937,0.93463"
       style="fill:#ffffff;fill-opacity:1;fill-rule:nonzero;stroke:none;stroke-width:0.296144" /><path
       id="path33"
       d="m -49.453142,187.74917 c 0,0.41756 -0.374622,0.76227 -0.791001,0.76227 -0.41786,0 -0.762572,-0.34471 -0.762572,-0.76227 0,-0.41668 0.344712,-0.7602 0.762572,-0.7602 0.416379,0 0.791001,0.34352 0.791001,0.7602"
       style="fill:#ffffff;fill-opacity:1;fill-rule:nonzero;stroke:none;stroke-width:0.296144" /><path
       id="path34"
       d="m -10.450927,179.20836 c 0,0.41638 -0.344712,0.7611 -0.761387,0.7611 -0.418748,0 -0.76346,-0.34472 -0.76346,-0.7611 0,-0.41756 0.344712,-0.7602 0.76346,-0.7602 0.416675,0 0.761387,0.34264 0.761387,0.7602"
       style="fill:#ffffff;fill-opacity:1;fill-rule:nonzero;stroke:none;stroke-width:0.296144" /><path
       id="path35"
       d="m -28.606058,185.64358 c 0,0.41756 -0.342343,0.7602 -0.762276,0.7602 -0.416379,0 -0.760202,-0.34264 -0.760202,-0.7602 0,-0.41638 0.343823,-0.76109 0.760202,-0.76109 0.419933,0 0.762276,0.34471 0.762276,0.76109"
       style="fill:#ffffff;fill-opacity:1;fill-rule:nonzero;stroke:none;stroke-width:0.296144" /><path
       id="path36"
       d="m 20.23585,194.88773 c 0,0.41638 -0.343527,0.76109 -0.760202,0.76109 -0.419933,0 -0.763461,-0.34471 -0.763461,-0.76109 0,-0.41757 0.343528,-0.75991 0.763461,-0.75991 0.416675,0 0.760202,0.34234 0.760202,0.75991"
       style="fill:#ffffff;fill-opacity:1;fill-rule:nonzero;stroke:none;stroke-width:0.296144" /><path
       id="path37"
       d="m 24.217511,158.90619 c 0,0.51351 -0.422302,0.937 -0.935816,0.937 -0.514699,0 -0.937001,-0.42349 -0.937001,-0.937 0,-0.51233 0.422302,-0.937 0.937001,-0.937 0.513514,0 0.935816,0.42467 0.935816,0.937"
       style="fill:#ffffff;fill-opacity:1;fill-rule:nonzero;stroke:none;stroke-width:0.296144" /><path
       id="path38"
       d="m 16.722689,163.99632 c 0,0.41637 -0.345008,0.76109 -0.763756,0.76109 -0.417564,0 -0.761091,-0.34472 -0.761091,-0.76109 0,-0.41786 0.343527,-0.76021 0.761091,-0.76021 0.418748,0 0.763756,0.34235 0.763756,0.76021"
       style="fill:#ffffff;fill-opacity:1;fill-rule:nonzero;stroke:none;stroke-width:0.296144" /><path
       id="path39"
       d="m 24.102903,165.45838 c 0,0.51351 -0.422005,0.937 -0.937,0.937 -0.515884,0 -0.937001,-0.42349 -0.937001,-0.937 0,-0.51114 0.421117,-0.93582 0.937001,-0.93582 0.514995,0 0.937,0.42468 0.937,0.93582"
       style="fill:#ffffff;fill-opacity:1;fill-rule:nonzero;stroke:none;stroke-width:0.296144" /><path
       id="path40"
       d="m 16.722689,174.5278 c 0,0.41638 -0.345008,0.76109 -0.763756,0.76109 -0.417564,0 -0.761091,-0.34471 -0.761091,-0.76109 0,-0.41756 0.343527,-0.7599 0.761091,-0.7599 0.418748,0 0.763756,0.34234 0.763756,0.7599"
       style="fill:#ffffff;fill-opacity:1;fill-rule:nonzero;stroke:none;stroke-width:0.296144" /><path
       id="path41"
       d="m 35.812156,153.81635 c 0,0.41875 -0.343527,0.76109 -0.761091,0.76109 -0.415194,0 -0.759906,-0.34234 -0.759906,-0.76109 0,-0.41786 0.344712,-0.7602 0.759906,-0.7602 0.417564,0 0.761091,0.34234 0.761091,0.7602"
       style="fill:#ffffff;fill-opacity:1;fill-rule:nonzero;stroke:none;stroke-width:0.296144" /><path
       id="path42"
       d="m 37.657432,158.43769 c 0,0.51469 -0.389726,0.937 -0.905906,0.937 -0.513514,0 -0.964542,-0.42231 -0.964542,-0.937 0,-0.51233 0.422006,-0.93464 0.933447,-0.93464 0.514699,0 0.937001,0.42231 0.937001,0.93464"
       style="fill:#ffffff;fill-opacity:1;fill-rule:nonzero;stroke:none;stroke-width:0.296144" /><path
       id="path43"
       d="m 50.804465,163.93827 c 0,0.51381 -0.418748,0.93582 -0.937,0.93582 -0.514699,0 -0.937001,-0.42201 -0.937001,-0.93582 0,-0.51233 0.422302,-0.937 0.937001,-0.937 0.518252,0 0.937,0.42467 0.937,0.937"
       style="fill:#ffffff;fill-opacity:1;fill-rule:nonzero;stroke:none;stroke-width:0.296144" /><path
       id="path44"
       d="m 37.454869,173.70985 c 0,0.41668 -0.347081,0.75902 -0.76346,0.75902 -0.416379,0 -0.759907,-0.34234 -0.759907,-0.75902 0,-0.41993 0.343528,-0.76227 0.759907,-0.76227 0.416379,0 0.76346,0.34234 0.76346,0.76227"
       style="fill:#ffffff;fill-opacity:1;fill-rule:nonzero;stroke:none;stroke-width:0.296144" /><path
       id="path45"
       d="m 45.884619,165.75216 c 0,0.41756 -0.343528,0.7602 -0.759907,0.7602 -0.416379,0 -0.760202,-0.34264 -0.760202,-0.7602 0,-0.41875 0.343823,-0.7611 0.760202,-0.7611 0.416379,0 0.759907,0.34235 0.759907,0.7611"
       style="fill:#ffffff;fill-opacity:1;fill-rule:nonzero;stroke:none;stroke-width:0.296144" /><path
       id="path46"
       d="m 44.335784,178.03771 c 0,0.41756 -0.344712,0.7599 -0.761388,0.7599 -0.418748,0 -0.76346,-0.34234 -0.76346,-0.7599 0,-0.41668 0.344712,-0.76139 0.76346,-0.76139 0.416676,0 0.761388,0.34471 0.761388,0.76139"
       style="fill:#ffffff;fill-opacity:1;fill-rule:nonzero;stroke:none;stroke-width:0.296144" /><path
       id="path47"
       d="m 47.906693,157.61973 c 0,0.64205 -0.529803,1.16978 -1.171844,1.16978 -0.642041,0 -1.170658,-0.52773 -1.170658,-1.16978 0,-0.64204 0.528617,-1.17065 1.170658,-1.17065 0.642041,0 1.171844,0.52861 1.171844,1.17065"
       style="fill:#ffffff;fill-opacity:1;fill-rule:nonzero;stroke:none;stroke-width:0.296144" /><path
       id="path48"
       d="m 46.734849,154.0512 -0.349154,3.21701 -3.193029,0.35152 3.219386,0.34946 0.353004,3.33636 0.351523,-3.33636 3.161638,-0.40957 -3.189179,-0.29141 -0.354189,-3.21701"
       style="fill:#ffffff;fill-opacity:1;fill-rule:nonzero;stroke:none;stroke-width:0.296144" /><path
       id="path49"
       d="m 39.708528,177.97966 c 0,0.64204 -0.529803,1.16977 -1.171844,1.16977 -0.642041,0 -1.170658,-0.52773 -1.170658,-1.16977 0,-0.64204 0.528617,-1.17066 1.170658,-1.17066 0.642041,0 1.171844,0.52862 1.171844,1.17066"
       style="fill:#ffffff;fill-opacity:1;fill-rule:nonzero;stroke:none;stroke-width:0.296144" /><path
       id="path50"
       d="m 38.536684,174.41112 -0.353004,3.21702 -3.189179,0.35152 3.218201,0.35182 0.352708,3.33399 0.353004,-3.33399 3.161638,-0.40957 -3.193029,-0.29377 -0.350339,-3.21702"
       style="fill:#ffffff;fill-opacity:1;fill-rule:nonzero;stroke:none;stroke-width:0.296144" /><path
       id="path51"
       d="m -47.667983,81.327908 c 0,0.642041 -0.528618,1.169474 -1.170659,1.169474 -0.643226,0 -1.171843,-0.527433 -1.171843,-1.169474 0,-0.642041 0.528617,-1.170659 1.171843,-1.170659 0.642041,0 1.170659,0.528618 1.170659,1.170659"
       style="fill:#ffffff;fill-opacity:1;fill-rule:nonzero;stroke:none;stroke-width:0.296144" /><path
       id="path52"
       d="m -48.838642,77.759072 -0.351819,3.217313 -3.192733,0.351523 3.221755,0.34945 0.351523,3.336067 0.35182,-3.336067 3.161637,-0.407198 -3.193029,-0.293775 -0.349154,-3.217313"
       style="fill:#ffffff;fill-opacity:1;fill-rule:nonzero;stroke:none;stroke-width:0.296144" /><path
       id="path53"
       d="m -4.0977413,53.011471 c 0,0.642041 -0.5286177,1.169474 -1.1706587,1.169474 -0.642041,0 -1.1685857,-0.527433 -1.1685857,-1.169474 0,-0.642041 0.5265447,-1.170659 1.1685857,-1.170659 0.642041,0 1.1706587,0.528618 1.1706587,1.170659"
       style="fill:#ffffff;fill-opacity:1;fill-rule:nonzero;stroke:none;stroke-width:0.296144" /><path
       id="path54"
       d="m -5.2684,49.44145 -0.350635,3.219386 -3.1927325,0.350635 3.2217547,0.351523 0.3503388,3.333994 0.3530041,-3.333994 3.1604528,-0.410456 L -4.9192458,52.660836 -5.2684,49.44145"
       style="fill:#ffffff;fill-opacity:1;fill-rule:nonzero;stroke:none;stroke-width:0.296144" /><path
       id="path55"
       d="m -57.067014,196.70043 c 0,0.64204 -0.528913,1.17066 -1.170954,1.17066 -0.64293,0 -1.173028,-0.52862 -1.173028,-1.17066 0,-0.63967 0.530098,-1.16948 1.173028,-1.16948 0.642041,0 1.170954,0.52981 1.170954,1.16948"
       style="fill:#ffffff;fill-opacity:1;fill-rule:nonzero;stroke:none;stroke-width:0.296144" /><path
       id="path56"
       d="m -58.208946,193.13159 -0.351524,3.2185 -3.191844,0.35034 3.22057,0.35182 0.35182,3.33488 0.351523,-3.33488 3.161638,-0.40839 -3.190364,-0.29377 -0.351819,-3.2185"
       style="fill:#ffffff;fill-opacity:1;fill-rule:nonzero;stroke:none;stroke-width:0.296144" /><path
       id="path57"
       d="M 96.8792,44.101671 C 82.634656,86.358809 25.572076,118.988 -22.463431,150.14209 c -28.978024,18.7948 -57.748154,40.43437 -77.553999,58.8427 -5.22191,4.85381 1.063163,-1.81388 -0.937,0.23485 27.640936,-31.82753 59.434996,-50.78195 77.00465,-62.71568 29.7172003,-20.18757 46.614902,-25.27504 97.877791,-72.497333"
       style="fill:#e21c29;fill-opacity:1;fill-rule:nonzero;stroke:none;stroke-width:0.296144" /><path
       id="path58"
       d="m -115.63193,148.79345 c -5.11442,2.50449 -9.69636,4.97641 -13.58563,7.39087 l 2.3656,0.85941 c 3.39974,-2.09374 7.48239,-4.2778 11.78211,-6.20274"
       style="fill:#ee293d;fill-opacity:1;fill-rule:nonzero;stroke:none;stroke-width:0.296144" /><path
       id="path59"
       d="m -88.625047,196.07941 c -4.675824,4.08117 -9.5089,8.43775 -14.357083,13.0037 l -0.21411,3.2262 c 4.438613,-4.57158 9.890631,-9.51008 16.183699,-14.74917"
       style="fill:#ee293d;fill-opacity:1;fill-rule:nonzero;stroke:none;stroke-width:0.296144" /><path
       id="path60"
       d="M -3.3378348,177.62814 C 36.593089,194.05497 29.663903,152.54382 8.3785253,120.76042 -3.6837314,102.74981 -18.563802,88.46558 -29.338423,80.509069 -41.924559,71.216354 -43.158889,70.444602 -43.158889,70.444602 c 28.109432,13.339231 53.642705,46.103758 64.181299,70.239528 4.868021,11.1448 18.135289,55.23892 -24.1254023,37.41251"
       style="fill:#ffffff;fill-opacity:1;fill-rule:nonzero;stroke:none;stroke-width:0.296144" /></g></svg>
