<?xml version="1.0" encoding="UTF-8" standalone="no"?>
<!-- Created with Inkscape (http://www.inkscape.org/) -->

<svg
   version="1.1"
   id="svg1"
   width="175.36932"
   height="175.36932"
   viewBox="0 0 175.36933 175.36933"
   sodipodi:docname="Smithsonian-logo.svg"
   xml:space="preserve"
   inkscape:version="1.3.2 (1:1.3.2+202311252150+091e20ef0f)"
   xmlns:inkscape="http://www.inkscape.org/namespaces/inkscape"
   xmlns:sodipodi="http://sodipodi.sourceforge.net/DTD/sodipodi-0.dtd"
   xmlns="http://www.w3.org/2000/svg"
   xmlns:svg="http://www.w3.org/2000/svg"><defs
     id="defs1" /><sodipodi:namedview
     id="namedview1"
     pagecolor="#ffffff"
     bordercolor="#000000"
     borderopacity="0.25"
     inkscape:showpageshadow="2"
     inkscape:pageopacity="0.0"
     inkscape:pagecheckerboard="true"
     inkscape:deskcolor="#d1d1d1"
     inkscape:zoom="3.8908883"
     inkscape:cx="105.5029"
     inkscape:cy="116.42586"
     inkscape:window-width="1491"
     inkscape:window-height="1274"
     inkscape:window-x="1081"
     inkscape:window-y="281"
     inkscape:window-maximized="0"
     inkscape:current-layer="svg1"><inkscape:page
       x="0"
       y="0"
       inkscape:label="1"
       id="page1"
       width="175.36932"
       height="175.36932"
       margin="0"
       bleed="0" /></sodipodi:namedview><circle
     style="fill:#ffffff;stroke-width:1.32673"
     id="path27"
     cx="87.035988"
     cy="87.400345"
     r="86.994728" /><g
     id="g1"
     inkscape:groupmode="layer"
     inkscape:label="1"
     transform="translate(-1.6323952e-6,-0.00400268)"><path
       id="path2"
       d="m 17.396933,124.92026 0.523333,-0.30053 c 0.740667,1.04787 0.922934,1.1224 2.1824,0.40093 l 5.738,-3.28906 c 1.273333,-0.728 1.301067,-0.92334 0.769733,-2.09374 l 0.526,-0.2984 2.5756,4.49374 -0.523466,0.30053 c -0.742134,-1.04947 -0.923467,-1.12347 -2.197867,-0.3948 l -5.738533,3.28907 c -1.257867,0.72186 -1.284933,0.91666 -0.7552,2.08493 L 19.9724,129.414 17.396933,124.92026"
       style="fill:#211d1d;fill-opacity:1;fill-rule:nonzero;stroke:none;stroke-width:0.133333" /><path
       id="path3"
       d="m 39.694799,137.4572 c -0.649467,-0.66934 -1.0584,-0.79747 -1.714533,-0.34014 -0.4376,0.31094 -1.1172,0.7656 -2.263067,1.76307 l -5.169333,4.4984 -0.544267,-0.62493 1.771867,-11.06 -0.03227,-0.0391 -2.9312,2.55053 c -1.145866,0.9964 -1.662533,1.5604 -2.018266,1.93907 -0.516667,0.56253 -0.571334,1 0.228133,1.99747 l -0.455733,0.3968 -2.776,-3.1916 0.455733,-0.3948 c 0.687467,0.68386 1.156267,0.8016 1.7604,0.36666 0.476533,-0.32133 1.1156,-0.74266 2.263067,-1.73853 l 2.721333,-2.36827 c 0.846267,-0.73693 1.070267,-0.97813 1.1536,-1.48693 0.109333,-0.5052 -0.04693,-0.89427 -0.471333,-1.48707 l 0.455733,-0.39573 2.0964,2.40613 -1.388133,9.948 0.04427,0.0531 2.291733,-1.9948 c 1.145867,-0.99733 1.690134,-1.6052 2.045334,-1.96147 0.502533,-0.55306 0.486933,-1.01813 -0.2876,-2.01293 l 0.455733,-0.39587 2.764133,3.17707 -0.455733,0.39587"
       style="fill:#211d1d;fill-opacity:1;fill-rule:nonzero;stroke:none;stroke-width:0.133333" /><path
       id="path4"
       d="m 47.113999,146.1212 c 0.366266,-1.0864 0.624,-2.49054 -0.5052,-3.34107 -0.771867,-0.58387 -1.773333,-0.4308 -2.3656,0.35467 -0.570267,0.75826 -0.406267,1.57453 0.348933,3.0932 0.916667,1.7932 1.326667,3.312 0.298,4.676 -1.183333,1.572 -3.445333,1.78906 -5.4568,0.27453 -0.4948,-0.37453 -0.927066,-0.80787 -1.2464,-1.24267 -0.300533,-0.4 -0.480133,-0.70946 -0.611866,-0.93706 0.136933,-0.43747 0.8296,-1.7296 1.366133,-2.64427 l 0.597333,0.21467 c -0.389066,1.088 -0.740666,3.24426 0.582267,4.24013 0.8412,0.6348 1.8152,0.46133 2.4688,-0.4068 0.614533,-0.81307 0.390667,-1.77867 -0.226533,-3.1104 -0.8776,-1.78547 -1.296934,-3.26827 -0.299467,-4.5896 1.1432,-1.5172 3.234267,-1.79853 5.19,-0.3224 0.8828,0.66507 1.460933,1.53173 1.635466,1.81613 -0.328133,0.5516 -0.690133,1.2292 -1.222933,2.16774 l -0.552133,-0.2428"
       style="fill:#211d1d;fill-opacity:1;fill-rule:nonzero;stroke:none;stroke-width:0.133333" /><path
       id="path5"
       d="m 60.896932,153.84266 c 0.203066,-0.89853 0.231733,-1.5188 0.08587,-1.93333 -0.130133,-0.40533 -0.4896,-0.6948 -1.392133,-1.12813 l -0.714666,-0.34534 -3.539067,7.36147 c -0.638,1.32133 -0.526,1.49053 0.791733,2.2588 l -0.263066,0.54373 -5.072934,-2.44013 0.261467,-0.54373 c 1.359467,0.5188 1.561467,0.50266 2.196933,-0.82294 l 3.539067,-7.35986 -0.528667,-0.25307 c -1.276,-0.6136 -1.6396,-0.5776 -1.992133,-0.44013 -0.375067,0.14426 -0.8324,0.576 -1.408933,1.25733 L 52.300532,149.728 c 0.6068,-1.1068 1.247333,-2.1984 1.659867,-2.9776 l 0.374,0.18026 c 0.07653,0.4776 0.262933,0.60667 0.698933,0.81614 l 6.2568,3.0068 c 0.4192,0.2036 0.682266,0.21293 1.088533,0.0452 l 0.3724,0.18133 c -0.296933,0.65827 -0.8776,2.06667 -1.278667,3.1 l -0.575466,-0.23747"
       style="fill:#211d1d;fill-opacity:1;fill-rule:nonzero;stroke:none;stroke-width:0.133333" /><path
       id="path6"
       d="m 64.472398,163.76396 0.157334,-0.58386 c 1.2656,0.21719 1.4468,0.13854 1.8244,-1.26144 l 1.7188,-6.38386 c 0.3812,-1.4188 0.263066,-1.576 -0.940134,-2.02294 l 0.157334,-0.58386 5.0016,1.34533 -0.157867,0.5828 c -1.264133,-0.21453 -1.4464,-0.13853 -1.826533,1.27867 l -1.7204,6.38541 c -0.376,1.4 -0.257734,1.55572 0.944266,2.00624 l -0.156133,0.58437 -5.002667,-1.34686"
       style="fill:#211d1d;fill-opacity:1;fill-rule:nonzero;stroke:none;stroke-width:0.133333" /><path
       id="path7"
       d="m 86.480265,159.0296 c -0.135467,-0.9084 -0.3308,-1.49747 -0.6172,-1.8308 -0.2672,-0.33334 -0.705734,-0.4708 -1.704667,-0.55094 l -0.790133,-0.0625 -0.6448,8.13748 c -0.1156,1.46249 0.0484,1.57968 1.5536,1.81979 l -0.0484,0.60261 -5.607867,-0.44376 0.04693,-0.60156 c 1.454134,-0.007 1.635334,-0.0958 1.751067,-1.55833 l 0.6432,-8.13903 -0.5844,-0.0453 c -1.411467,-0.112 -1.735867,0.0521 -2.0156,0.30826 -0.2984,0.2704 -0.567733,0.83854 -0.859333,1.68134 l -0.619867,-0.0505 c 0.169333,-1.24946 0.3708,-2.49746 0.474,-3.37346 l 0.412533,0.0344 c 0.244667,0.41613 0.465067,0.46826 0.9468,0.5068 l 6.916667,0.54786 c 0.4636,0.036 0.7136,-0.0479 1.032266,-0.35053 l 0.413067,0.0317 c -0.04067,0.72294 -0.07293,2.24534 -0.07547,3.35214 l -0.622399,-0.0156"
       style="fill:#211d1d;fill-opacity:1;fill-rule:nonzero;stroke:none;stroke-width:0.133333" /><path
       id="path8"
       d="m 103.85786,154.928 c -0.9324,0.188 -1.30733,0.60933 -1.30626,1.21986 -0.008,0.54 0.0156,1.18427 0.19266,2.39734 l 0.2724,1.86146 c 0.26307,1.81094 0.20054,3.28386 -0.6068,4.44792 -0.66666,0.93594 -1.7656,1.5323 -2.979196,1.70938 -1.1276,0.16406 -2.236933,0.0828 -3.1536,-0.44792 -1.082266,-0.60782 -1.710933,-1.80782 -2.002533,-3.80782 l -0.586,-4.01356 c -0.233333,-1.6052 -0.421867,-1.7 -1.703067,-1.63493 l -0.0876,-0.5968 5.142267,-0.74947 0.08693,0.59587 c -1.230133,0.30253 -1.383866,0.4452 -1.149466,2.052 l 0.541733,3.7068 c 0.373333,2.56249 1.512933,3.91301 3.356667,3.64531 2.033865,-0.29896 2.698005,-1.96667 2.281335,-4.81718 l -0.2672,-1.82706 c -0.1756,-1.212 -0.3568,-1.84894 -0.51667,-2.34894 -0.17186,-0.58706 -0.6328,-0.86826 -1.804665,-0.76666 l -0.086,-0.5964 4.286535,-0.62654 0.0885,0.59734"
       style="fill:#211d1d;fill-opacity:1;fill-rule:nonzero;stroke:none;stroke-width:0.133333" /><path
       id="path9"
       d="m 117.99426,152.29986 c -0.52186,-0.75826 -0.95573,-1.20106 -1.35933,-1.37706 -0.38653,-0.1828 -0.84227,-0.112 -1.77453,0.25466 l -0.73854,0.29067 2.99374,7.60107 c 0.53906,1.364 0.73706,1.39733 2.19533,0.952 l 0.22133,0.56253 -5.23693,2.06408 -0.22133,-0.56251 c 1.30466,-0.6437 1.42813,-0.80264 0.88906,-2.17077 l -2.99333,-7.59853 -0.5468,0.21613 c -1.31773,0.5188 -1.53653,0.81053 -1.676,1.16093 -0.1496,0.37614 -0.14427,1.0032 -0.0349,1.8896 l -0.57814,0.22814 c -0.3984,-1.19734 -0.76453,-2.40827 -1.05466,-3.2416 l 0.38533,-0.15214 c 0.40213,0.26827 0.6224,0.21774 1.074,0.0417 l 6.45733,-2.54534 c 0.4348,-0.1708 0.6208,-0.35466 0.77347,-0.76933 l 0.38533,-0.15107 c 0.28227,0.66987 0.9204,2.05107 1.40467,3.04694 l -0.56507,0.25986"
       style="fill:#211d1d;fill-opacity:1;fill-rule:nonzero;stroke:none;stroke-width:0.133333" /><path
       id="path10"
       d="m 127.65053,156.4588 -0.32133,-0.512 c 1.0208,-0.78027 1.08853,-0.96414 0.31773,-2.1964 l -3.512,-5.60774 c -0.77867,-1.2428 -0.97507,-1.26413 -2.1224,-0.68813 l -0.32133,-0.51187 4.3932,-2.7496 0.32026,0.512 c -1.01826,0.78027 -1.08586,0.9656 -0.30733,2.20947 l 3.51147,5.60827 c 0.76986,1.2292 0.9652,1.25053 2.1136,0.67346 l 0.32026,0.51307 -4.39213,2.74947"
       style="fill:#211d1d;fill-opacity:1;fill-rule:nonzero;stroke:none;stroke-width:0.133333" /><path
       id="path11"
       d="m 135.78933,143.4416 c 2.02667,2.14533 4.69867,3.06506 6.30667,1.54786 1.192,-1.12653 1.056,-3.20573 -1.124,-5.51453 -2.35734,-2.49893 -4.796,-3.04427 -6.24,-1.6828 -1.268,1.1984 -0.992,3.47707 1.05733,5.64947 z m 6.772,-6.1308 c 2.56,2.70946 2.16667,6.19173 -0.19333,8.41986 -2.512,2.3692 -5.99734,2.17187 -8.272,-0.2376 -2.0376,-2.15826 -2.50907,-5.72653 0.364,-8.43946 2.284,-2.15734 5.75466,-2.2272 8.10133,0.2572"
       style="fill:#211d1d;fill-opacity:1;fill-rule:nonzero;stroke:none;stroke-width:0.133333" /><path
       id="path12"
       d="m 148.792,120.06346 c -0.46534,0.80987 -0.476,1.23587 0.144,1.74214 0.41866,0.33333 1.04266,0.86466 2.316,1.69266 l 5.744,3.73707 -0.45067,0.69427 -11.12267,1.3292 -0.0267,0.0443 3.25333,2.11867 c 1.27467,0.82653 1.95867,1.16933 2.42,1.40733 0.684,0.34267 1.11867,0.27494 1.85867,-0.76666 l 0.50666,0.3292 -2.30666,3.54426 -0.50667,-0.3292 c 0.46933,-0.84786 0.45467,-1.33066 -0.12933,-1.7932 -0.43867,-0.36933 -1.02134,-0.8708 -2.29334,-1.698 l -3.02266,-1.9672 c -0.94134,-0.61186 -1.23467,-0.76186 -1.74534,-0.7036 -0.51866,0.0355 -0.84933,0.2932 -1.30266,0.86094 l -0.50667,-0.32814 1.74133,-2.67706 9.94534,-1.3948 0.0373,-0.0568 -2.54533,-1.65774 c -1.27334,-0.82813 -2.01067,-1.18333 -2.448,-1.42706 -0.66934,-0.33334 -1.112,-0.18854 -1.85734,0.83066 l -0.50666,-0.33066 2.29733,-3.52867 0.50667,0.32813"
       style="fill:#211d1d;fill-opacity:1;fill-rule:nonzero;stroke:none;stroke-width:0.133333" /><path
       id="path13"
       d="m 20.765066,50.2504 c -1.133866,-0.176 -2.5624,-0.194267 -3.210933,1.065066 -0.443733,0.858934 -0.1224,1.820934 0.7516,2.271467 0.843733,0.435333 1.619733,0.135867 2.990666,-0.866667 1.613467,-1.207333 3.044267,-1.8688 4.5624,-1.086 1.75,0.902667 2.348,3.0964 1.1928,5.337467 -0.284933,0.552133 -0.639066,1.049467 -1.014133,1.438533 -0.343733,0.366667 -0.616133,0.595334 -0.820267,0.762 -0.454666,-0.05987 -1.8464,-0.524933 -2.837466,-0.900533 l 0.106666,-0.6244 c 1.140667,0.199467 3.3256,0.1812 4.086,-1.292267 0.483334,-0.936933 0.1484,-1.866666 -0.8188,-2.366133 -0.906266,-0.466667 -1.822933,-0.0844 -3.030133,0.749467 -1.613067,1.169333 -3.003733,1.832266 -4.476533,1.071866 -1.688533,-0.870266 -2.3188,-2.885333 -1.1964,-5.0656 0.506267,-0.9828 1.266667,-1.698933 1.514,-1.9192 0.6016,0.230667 1.3308,0.471867 2.3464,0.84 L 20.765066,50.2504"
       style="fill:#211d1d;fill-opacity:1;fill-rule:nonzero;stroke:none;stroke-width:0.133333" /><path
       id="path14"
       d="m 37.072399,41.906667 -0.459333,-0.392 c 0.735333,-1.077334 0.709333,-1.233334 -0.512,-2.250667 l -5.086,-4.286666 -0.05467,0.06533 4.3636,8.732266 -0.314133,0.368134 -8.992133,-3.031067 -0.04693,0.052 3.298534,3.082267 c 1.0468,0.981733 1.666666,1.509333 2.118133,1.8036 0.637067,0.4516 0.9792,0.2896 1.796933,-0.5104 l 0.460933,0.3912 -2.688533,3.156666 -0.460933,-0.3916 c 0.560933,-0.7932 0.537467,-1.2448 0.144267,-1.716133 -0.354134,-0.437467 -0.948,-1.124533 -2.25,-2.3932 L 25.978666,42.168133 C 24.569733,40.786667 24.306799,40.722667 23.237999,41.764 l -0.460933,-0.393333 2.3188,-2.721334 7.923467,2.368 -3.564134,-7.483999 2.25,-2.644 0.462534,0.392 c -0.791734,1.141333 -0.7308,1.284 0.3828,2.188 L 37.569732,37.54 c 1.233334,1.005333 1.380267,1.017333 2.3584,0.08133 l 0.462,0.392 -3.317733,3.893334"
       style="fill:#211d1d;fill-opacity:1;fill-rule:nonzero;stroke:none;stroke-width:0.133333" /><path
       id="path15"
       d="M 44.371866,34.925334 44.007332,34.444 c 0.942667,-0.869333 0.993734,-1.06 0.116134,-2.214666 l -4.002667,-5.262667 c -0.888,-1.166667 -1.0848,-1.169333 -2.176,-0.492 l -0.364533,-0.481333 4.119733,-3.136 0.3672,0.481333 c -0.943733,0.869333 -0.9948,1.06 -0.1052,2.228 l 4.001067,5.262667 c 0.880133,1.153333 1.075466,1.156 2.166666,0.48 l 0.366133,0.48 -4.123999,3.136"
       style="fill:#211d1d;fill-opacity:1;fill-rule:nonzero;stroke:none;stroke-width:0.133333" /><path
       id="path16"
       d="m 57.546399,17.237334 c -0.586,-0.710667 -1.057334,-1.113333 -1.474,-1.252 -0.401067,-0.146667 -0.848934,-0.03867 -1.7432,0.410667 l -0.709867,0.354666 3.65,7.3 c 0.656133,1.312 0.8552,1.328 2.268133,0.757333 l 0.270934,0.538667 -5.032934,2.517333 -0.2692,-0.542666 c 1.242134,-0.754667 1.35,-0.925334 0.695334,-2.236 l -3.651067,-7.301333 -0.525067,0.262666 c -1.2656,0.633334 -1.459333,0.941334 -1.566133,1.304 -0.116133,0.386667 -0.0536,1.012 0.131333,1.882667 l -0.555733,0.278667 c -0.502667,-1.157334 -0.971333,-2.330667 -1.334933,-3.133334 l 0.369733,-0.185333 c 0.424533,0.232 0.640667,0.161333 1.072933,-0.05467 l 6.204667,-3.101333 c 0.417733,-0.208 0.587067,-0.409333 0.7032,-0.833333 l 0.369733,-0.185334 c 0.3396,0.64 1.0948,1.96 1.666667,2.909334 l -0.540533,0.309333"
       style="fill:#211d1d;fill-opacity:1;fill-rule:nonzero;stroke:none;stroke-width:0.133333" /><path
       id="path17"
       d="m 75.907331,9.4960008 c -1.283866,0.42 -1.362,0.5440002 -1.0328,1.9733332 l 1.489467,6.473333 c 0.324533,1.412 0.483333,1.482667 1.788133,1.306667 l 0.1364,0.588 -5.128666,1.18 -0.135333,-0.588 c 1.316133,-0.428 1.407199,-0.572 1.083333,-1.984 l -0.7204,-3.126667 -4.5896,1.054667 0.719867,3.128 c 0.3296,1.429333 0.486933,1.498667 1.757733,1.330667 l 0.135467,0.588 -5.011467,1.154666 -0.135467,-0.589333 c 1.200534,-0.4 1.3292,-0.536 1,-1.965333 l -1.485866,-6.456 c -0.3308,-1.430667 -0.5036,-1.496 -1.825467,-1.316 l -0.136533,-0.588 5.044266,-1.161334 0.135467,0.589334 c -1.183867,0.394666 -1.294267,0.526666 -0.9652,1.957333 l 0.567733,2.470667 4.5912,-1.056 -0.5688,-2.472 c -0.3296,-1.430667 -0.486933,-1.5 -1.759333,-1.330667 l -0.133867,-0.588 5.044267,-1.1626665 0.135466,0.5893333"
       style="fill:#211d1d;fill-opacity:1;fill-rule:nonzero;stroke:none;stroke-width:0.133333" /><path
       id="path18"
       d="m 89.818798,11.044001 c -0.3688,-1.0853335 -1.0172,-2.3600002 -2.433867,-2.3493335 -0.9672,0.00667 -1.669333,0.736 -1.662533,1.7199995 0.0063,0.950667 0.6312,1.5 2.156266,2.248 1.820267,0.869334 3.071334,1.828 3.083334,3.538667 0.01147,1.969333 -1.6536,3.517333 -4.176,3.536 -0.620933,0.0027 -1.225067,-0.08 -1.7448,-0.230667 -0.485467,-0.136 -0.8136,-0.272 -1.057333,-0.373333 -0.1588,-0.430667 -0.391734,-1.88 -0.5208,-2.933333 l 0.603066,-0.194667 c 0.354134,1.104 1.385467,3.032 3.044267,3.02 1.0532,-0.0067 1.7224,-0.737333 1.714666,-1.824 -0.0063,-1.02 -0.770933,-1.654667 -2.071466,-2.336 -1.783867,-0.885333 -3.018133,-1.810667 -3.030133,-3.469333 -0.01147,-1.9000002 1.481733,-3.3946668 3.933866,-3.4120001 1.1052,-0.008 2.092133,0.3319999 2.404667,0.4493333 0.07293,0.64 0.197866,1.3973333 0.343733,2.4679998 l -0.586933,0.142667"
       style="fill:#211d1d;fill-opacity:1;fill-rule:nonzero;stroke:none;stroke-width:0.133333" /><path
       id="path19"
       d="m 99.923998,14.489334 c -0.609467,2.889333 0.158802,5.608 2.320262,6.064 1.60414,0.338667 3.236,-0.957333 3.89214,-4.065333 0.70946,-3.361334 -0.23174,-5.677334 -2.1744,-6.086667 -1.70574,-0.361333 -3.42187,1.165333 -4.038002,4.088 z m 8.897332,2.070667 c -0.7708,3.649333 -3.85573,5.308 -7.03013,4.64 -3.380269,-0.713334 -5.203202,-3.692 -4.519336,-6.934667 0.613067,-2.906667 3.275996,-5.3266665 7.143196,-4.5093332 3.074,0.6480002 5.1104,3.4586662 4.40627,6.8040002"
       style="fill:#211d1d;fill-opacity:1;fill-rule:nonzero;stroke:none;stroke-width:0.133333" /><path
       id="path20"
       d="m 127.64266,19.433334 c -0.8604,-0.361333 -1.2848,-0.317333 -1.71093,0.358667 -0.2796,0.46 -0.72907,1.144 -1.3932,2.511999 l -3,6.168 -0.7448,-0.362666 -2.70307,-10.88 -0.0443,-0.02267 -1.70054,3.494667 c -0.6652,1.368 -0.91933,2.090666 -1.09893,2.578666 -0.2552,0.721334 -0.13387,1.145334 0.99373,1.750667 l -0.26466,0.544 -3.8072,-1.850667 0.26453,-0.544 c 0.90107,0.36 1.37867,0.286667 1.7656,-0.352 0.31093,-0.482666 0.73707,-1.121333 1.40213,-2.487999 l 1.57814,-3.248 c 0.49106,-1.009334 0.60306,-1.32 0.48173,-1.82 -0.0989,-0.509334 -0.39587,-0.806667 -1.01667,-1.186667 l 0.26414,-0.544 2.87493,1.397333 2.6188,9.708 0.0624,0.02933 1.3292,-2.734666 c 0.66413,-1.366667 0.926,-2.142667 1.11467,-2.608 0.24626,-0.706667 0.0484,-1.129333 -1.05574,-1.744 l 0.264,-0.542667 3.79174,1.842667 -0.26574,0.544"
       style="fill:#211d1d;fill-opacity:1;fill-rule:nonzero;stroke:none;stroke-width:0.133333" /><path
       id="path21"
       d="m 126.9412,31.832 0.36813,-0.48 c 1.08853,0.68 1.28387,0.677334 2.16667,-0.476 l 4.016,-5.258666 c 0.88933,-1.168 0.84,-1.357334 -0.10267,-2.230667 l 0.36667,-0.48 4.12,3.145333 -0.368,0.481334 c -1.088,-0.678667 -1.284,-0.678667 -2.176,0.489333 l -4.01747,5.258667 c -0.87853,1.153333 -0.82907,1.344 0.1136,2.216 l -0.3672,0.481333 L 126.9412,31.832"
       style="fill:#211d1d;fill-opacity:1;fill-rule:nonzero;stroke:none;stroke-width:0.133333" /><path
       id="path22"
       d="m 144.07733,35.933333 -0.036,-0.03733 c -1.25733,0.485333 -2.472,0.997333 -3.68267,1.485333 l 1.80534,2.001334 z m -5.19867,6.668667 0.45067,-0.4052 c 0.796,0.652533 1.01067,0.578133 1.388,-0.136533 0.26933,-0.474934 0.63333,-1.1536 0.98533,-1.820267 l -2.22133,-2.464 c -0.52533,0.218667 -1.136,0.469333 -1.78933,0.777333 -0.77734,0.377334 -0.93334,0.564 -0.20267,1.604 l -0.44933,0.405334 -2.59067,-2.873334 0.45867,-0.392 c 0.86666,0.753334 1.14666,0.781334 2.60533,0.232 l 8.96267,-3.319999 0.75733,0.504 C 145.73066,37.56 144.216,40.368 142.76266,43.193067 c -0.736,1.453733 -0.75333,1.770933 -0.12533,2.671866 l -0.448,0.4048 -3.31067,-3.667733"
       style="fill:#211d1d;fill-opacity:1;fill-rule:nonzero;stroke:none;stroke-width:0.133333" /><path
       id="path23"
       d="m 159.95466,55.5452 c -0.49066,-0.7964 -0.86133,-1.007334 -1.60133,-0.704134 -0.49467,0.209867 -1.25733,0.505734 -2.59333,1.230667 l -6.028,3.270933 -0.39334,-0.7292 4.13067,-10.418799 -0.0227,-0.0448 -3.41733,1.853199 c -1.33467,0.724934 -1.96267,1.164 -2.39333,1.456267 -0.62667,0.438 -0.77467,0.853067 -0.21067,2.0004 l -0.53067,0.288133 -2.02,-3.7188 0.532,-0.288 c 0.52267,0.816667 0.95467,1.033867 1.64,0.741067 0.53467,-0.210933 1.252,-0.483333 2.58667,-1.208267 l 3.17333,-1.721333 c 0.98667,-0.535466 1.26,-0.722933 1.452,-1.200533 0.216,-0.4708 0.14667,-0.886 -0.13733,-1.556267 l 0.532,-0.289066 1.524,2.809333 -3.51867,9.416133 0.0333,0.06093 2.672,-1.449466 c 1.336,-0.726 1.99866,-1.204134 2.424,-1.472934 0.61066,-0.430133 0.69866,-0.888533 0.15733,-2.030666 l 0.53067,-0.287467 2.01066,3.704133 -0.532,0.288534"
       style="fill:#211d1d;fill-opacity:1;fill-rule:nonzero;stroke:none;stroke-width:0.133333" /><path
       id="path24"
       d="m 174.70266,87.688399 c 0,48.058401 -38.96,87.018261 -87.018262,87.018261 -48.058399,0 -87.01773135,-38.95986 -87.01773135,-87.018261 0,-48.057732 38.95933235,-87.0177313 87.01773135,-87.0177313 48.058262,0 87.018262,38.9599993 87.018262,87.0177313 z"
       style="fill:none;stroke:#211d1d;stroke-width:1.33333;stroke-linecap:butt;stroke-linejoin:miter;stroke-miterlimit:4;stroke-dasharray:none;stroke-opacity:1" /><path
       id="path25"
       d="m 148.38133,87.688399 c 0,33.522401 -27.17453,60.696931 -60.696932,60.696931 -33.521866,0 -60.697465,-27.17453 -60.697465,-60.696931 0,-33.521866 27.175599,-60.697732 60.697465,-60.697732 33.522402,0 60.696932,27.175866 60.696932,60.697732"
       style="fill:#4091d1;fill-opacity:1;fill-rule:nonzero;stroke:none;stroke-width:0.133333" /><path
       id="path26"
       d="m 124.2964,99.983732 c -3.9324,-6.756267 -10.13907,-6.833333 -10.90734,-6.813467 0,0 0.003,-0.01467 0.004,-0.02093 l 26.19267,-5.458266 -26.19267,-5.454134 -9.3e-4,-0.0095 c 0.27187,-0.245867 5.36453,-4.7396 13.00093,-4.854134 5.762,-0.08547 10.75134,-7.138533 7.56867,-12.557866 0,0 -0.94733,8.516667 -11.6988,5.6776 -7.56093,-1.9968 -12.00787,2.343867 -12.53227,2.8964 l -0.007,-0.0068 14.664,-22.3896 -22.38386,14.665733 c -0.003,-0.0037 -0.007,-0.0052 -0.007,-0.0052 0.0145,-0.330266 0.4244,-7.134399 5.75933,-12.629733 4.014,-4.136 2.55467,-12.650533 -3.5276,-14.231866 0,0 5.35054,6.6896 -4.256262,12.284933 -6.757867,3.9344 -6.833334,10.1448 -6.817734,10.91 l -0.012,-0.0021 -5.458266,-26.1928 -5.456267,26.1928 c -0.0041,0.0021 -0.0073,0.0021 -0.0073,0.0021 -0.220267,-0.239067 -4.745333,-5.3412 -4.861467,-13.004267 -0.0848,-5.762933 -7.139066,-10.751999 -12.556266,-7.569333 0,0 8.5136,0.946934 5.6756,11.697467 -2.001067,7.581866 2.366133,12.028666 2.900533,12.538533 l -0.0052,0.0043 L 50.985465,50.99 v 0 0 l 11.949467,18.240666 2.715066,4.142667 c -0.0016,0.0041 -0.0031,0.0052 -0.0052,0.0073 -0.219333,-0.0104 -7.093199,-0.383333 -12.635466,-5.760933 -4.135333,-4.014667 -12.650533,-2.5548 -14.231733,3.5276 0,0 6.690133,-5.3532 12.286,4.256666 3.946266,6.7772 10.180133,6.832933 10.916666,6.814667 0,0.0057 -0.0021,0.01093 -0.0021,0.01093 l -26.195333,5.461467 26.195333,5.458266 v 0.0052 c -0.171334,0.157867 -5.2912,4.7448 -13.007867,4.859467 -5.763999,0.08747 -10.751999,7.139597 -7.570266,12.558257 0,0 0.9464,-8.51506 11.698933,-5.67813 7.5932,2.0052 12.0432,-2.37866 12.538533,-2.90106 0.0052,0.007 0.0095,0.012 0.01467,0.0199 l -14.6636,22.38013 22.378133,-14.66293 c -0.0104,0.23067 -0.385467,7.09533 -5.760933,12.6344 -4.014534,4.13533 -2.554667,12.64733 3.527066,14.23013 0,0 -5.352533,-6.68906 4.258933,-12.28386 6.773867,-3.94534 6.832267,-10.17547 6.815067,-10.91667 0.0052,0.002 0.014,0.005 0.02133,0.006 l 5.456267,26.18746 5.458266,-26.18746 0.0016,-0.001 c 0.1964,0.2172 4.742134,5.32453 4.857867,13.00787 0.08587,5.75933 7.139596,10.75 12.556266,7.56346 0,0 -8.51307,-0.94106 -5.67614,-11.69266 2,-7.57654 -2.35933,-12.0244 -2.8984,-12.53907 0.008,-0.002 0.0131,-0.009 0.0197,-0.0125 l 22.38026,14.66253 -7.7396,-11.81667 -6.92346,-10.56453 v 0 c 0.30893,0.0151 7.12506,0.41774 12.63186,5.76294 4.13534,4.01146 12.65,2.55319 14.23134,-3.52854 0,0 -6.68974,5.35147 -12.2876,-4.258394"
       style="fill:#f3cd0c;fill-opacity:1;fill-rule:nonzero;stroke:none;stroke-width:0.133333" /></g></svg>
