<?xml version="1.0" standalone="no"?>
<!DOCTYPE svg PUBLIC "-//W3C//DTD SVG 20010904//EN"
 "http://www.w3.org/TR/2001/REC-SVG-20010904/DTD/svg10.dtd">
<svg version="1.0" xmlns="http://www.w3.org/2000/svg"
 width="700.000000pt" height="700.000000pt" viewBox="0 0 700.000000 700.000000"
 preserveAspectRatio="xMidYMid meet">
<metadata>
Created by potrace 1.14, written by Peter Selinger 2001-2017
</metadata>
<g transform="translate(0.000000,700.000000) scale(0.100000,-0.100000)"
fill="#000000" stroke="none">
<path d="M3278 6995 c-1 -1 -42 -5 -89 -9 -47 -4 -96 -9 -109 -11 -12 -2 -48
-7 -79 -11 -57 -6 -76 -9 -121 -19 -34 -7 -69 -14 -105 -21 -66 -12 -236 -57
-340 -90 -1026 -331 -1842 -1111 -2217 -2119 -16 -44 -31 -88 -33 -98 -2 -9
-7 -22 -10 -27 -7 -11 -73 -242 -80 -280 -3 -14 -7 -35 -10 -47 -3 -13 -7 -33
-10 -45 -9 -40 -35 -196 -41 -240 -3 -24 -7 -56 -9 -73 -20 -142 -26 -515 -12
-682 52 -611 245 -1166 577 -1663 182 -271 367 -479 653 -735 44 -39 240 -184
330 -243 493 -326 1053 -521 1636 -570 174 -14 588 -6 721 14 287 44 447 80
663 150 297 97 563 226 831 403 282 185 485 364 743 653 99 112 272 359 371
530 199 345 369 822 417 1173 3 22 7 51 10 65 32 152 41 680 16 885 -112 920
-538 1712 -1236 2301 -98 82 -294 226 -367 269 -9 5 -50 30 -90 55 -345 210
-825 384 -1228 446 -25 3 -54 8 -65 10 -10 2 -47 6 -81 10 -33 3 -74 8 -90 10
-32 5 -540 14 -546 9z"/>
</g>
</svg>
